# AST/ASF file generated using VICON BodyLanguage
# -----------------------------------------------
:version 1.10
:name VICON
:units
  mass 1.0
  length 0.45
  angle deg
:documentation
   .ast/.asf automatically generated from VICON data using
   VICON BodyBuilder and BodyLanguage model FoxedUp or BRILLIANT.MOD
:root
   order TX TY TZ RX RY RZ
   axis XYZ
   position 0 0 0  
   orientation 0 0 0 
:bonedata
  begin
     id 1 
     name lhipjoint
     direction 0.611804 -0.747784 0.257906 
     length 2.29243 
     axis 0 0 0  XYZ
  end
  begin
     id 2 
     name lfemur
     direction 0.34202 -0.939693 0  
     length 7.31159  
     axis 0 0 20  XYZ
    dof rx ry rz
    limits (-160.0 20.0)
           (-70.0 70.0)
           (-60.0 70.0)
  end
  begin
     id 3 
     name ltibia
     direction 0.34202 -0.939693 0   
     length 7.33391   
     axis 0 0 20   XYZ
    dof rx
    limits (-10.0 170.0)
  end
  begin
     id 4 
     name lfoot
     direction 0.122263 -0.335914 0.933924   
     length 1.76083   
     axis -90 7.62852e-016 20   XYZ
    dof rx rz
    limits (-45.0 90.0)
           (-70.0 20.0)
  end
  begin
     id 5 
     name ltoes
     direction 1.53533e-011 -4.2177e-011 1   
     length 0.879206   
     axis -90 7.62852e-016 20   XYZ
    dof rx
    limits (-90.0 20.0)
  end
  begin
     id 6 
     name rhipjoint
     direction -0.646469 -0.721248 0.248754   
     length 2.37677  
     axis 0 0 0  XYZ 
  end
  begin
     id 7 
     name rfemur
     direction -0.34202 -0.939693 0   
     length 7.18623   
     axis 0 0 -20   XYZ
    dof rx ry rz
    limits (-160.0 20.0)
           (-70.0 70.0)
           (-70.0 60.0)
  end
  begin
     id 8 
     name rtibia
     direction -0.34202 -0.939693 0   
     length 7.36567   
     axis 0 0 -20   XYZ
    dof rx
    limits (-10.0 170.0)
 end
 begin
     id 9 
     name rfoot
     direction -0.126681 -0.348054 0.928876   
     length 1.71902  
     axis -90 -7.62852e-016 -20   XYZ
    dof rx rz
    limits (-45.0 90.0)
           (-20.0 70.0)
  end
  begin
     id 10 
     name rtoes
     direction -1.53551e-011 -4.21898e-011 1   
     length 0.857792   
     axis -90 -7.62852e-016 -20   XYZ
    dof rx
    limits (-90.0 20.0)
  end
  begin
     id 11 
     name lowerback
     direction 0.0106509 0.999778 0.0181844   
     length 2.07668   
     axis 0 0 0   XYZ
    dof rx ry rz
    limits (-20.0 45.0)
           (-30.0 30.0)
           (-30.0 30.0)
  end
  begin
     id 12 
     name upperback
     direction -0.00456018 0.999989 -0.000590935   
     length 2.08011   
     axis 0 0 0   XYZ
    dof rx ry rz
    limits (-20.0 45.0)
           (-30.0 30.0)
           (-30.0 30.0)
  end
  begin
     id 13 
     name thorax
     direction -0.00910382 0.999916 -0.00923765   
     length 2.07397   
     axis 0 0 0   XYZ
    dof rx ry rz
    limits (-20.0 45.0)
           (-30.0 30.0)
           (-30.0 30.0)
  end
  begin
     id 14 
     name lowerneck
     direction 0.00171967 0.99778 0.0665733   
     length 1.67556   
     axis 0 0 0   XYZ
    dof rx ry rz
    limits (-20.0 45.0)
           (-30.0 30.0)
           (-30.0 30.0)
  end
  begin
     id 15 
     name upperneck
     direction -0.0143166 0.991302 -0.130828   
     length 1.68462   
     axis 0 0 0   XYZ
    dof rx ry rz
    limits (-20.0 45.0)
           (-30.0 30.0)
           (-30.0 30.0)
  end
  begin
     id 16
     name head
     direction -0.00606378 0.998665 -0.0512995  
     length 1.69269  
     axis 0 0 0   XYZ
    dof rx ry rz
    limits (-20.0 45.0)
           (-30.0 30.0)
           (-30.0 30.0)
  end
  begin
     id 17 
     name lclavicle
     direction 0.9638 0.179341 0.197297  
     length 4.12888  
     axis 0 0 0   XYZ
    dof ry rz
    limits (-20.0 10.0)
           (0.0 20.0)
  end
  begin
     id 18 
     name lhumerus
     direction 1 -4.48972e-011 -2.47351e-027   
     length 5.01834   
     axis -180 -30 -90   XYZ
    dof rx ry rz
    limits (-60.0 90.0)
           (-90.0 90.0)
           (-90.0 90.0)
  end
  begin
     id 19
     name lradius
     direction 1 -4.48965e-011 1.51591e-026   
     length 3.4869   
     axis -180 -30 -90   XYZ
    dof rx
    limits (-10.0 170.0)
  end
  begin
     id 20
     name lwrist
     direction 1 -4.48957e-011 2.70032e-026   
     length 1.74345   
     axis -1.81515e-014 90 90   XYZ
    dof ry
    limits (-180.0 0.0)
 end
  begin
     id 21 
     name lhand
     direction 1 -4.48951e-011 5.40064e-026   
     length 0.76799   
     axis -3.44607e-014 90 90   XYZ
    dof rx rz
    limits (-90.0 90.0)
           (-45.0 45.0)
  end
  begin
     id 22 
     name lfingers
     direction 1 -4.48971e-011 1.08013e-025   
     length 0.619174   
     axis -6.89214e-014 90 90   XYZ
    dof rx
    limits (0.0 90.0)
  end
  begin
     id 23
     name lthumb
     direction 0.707107 -6.34931e-011 0.707107   
     length 0.889013   
     axis -90 45 2.85299e-015   XYZ
    dof rx rz
    limits (-45.0 45.0)
           (-45.0 45.0)
  end
  begin
     id 24 
     name rclavicle
     direction -0.961409 0.252588 0.109054   
     length 4.04305  
     axis 0 0 0   XYZ 
    dof ry rz
    limits (-10.0 20.0)
           (-20.0 0.0)
  end
  begin
     id 25 
     name rhumerus
     direction -1 -4.4897e-011 1.33872e-017  
     length 4.70164   
     axis -180 30 90   XYZ
    dof rx ry rz
    limits (-90.0 60.0)
           (-90.0 90.0)
           (-90.0 90.0)
  end
  begin
     id 26 
     name rradius
     direction -1 -4.48954e-011 1.83844e-026   
     length 3.49911   
     axis -180 30 90   XYZ
    dof rx
    limits (-10.0 170.0)
  end
  begin
     id 27 
     name rwrist
     direction -1 -4.49008e-011 2.70032e-026   
     length 1.74955   
     axis -1.81515e-014 -90 -90   XYZ
    dof ry
    limits (-180.0 0.0)
  end
  begin
     id 28
     name rhand
     direction -1 -4.48916e-011 5.40064e-026   
     length 0.739335   
     axis -3.44607e-014 -90 -90   XYZ
    dof rx rz
    limits (-90.0 90.0)
           (-45.0 45.0)
  end
  begin
     id 29
     name rfingers
     direction -1 -4.48987e-011 1.08013e-025   
     length 0.596071   
     axis -6.89214e-014 -90 -90   XYZ
    dof rx
    limits (0.0 90.0)
  end
  begin
     id 30
     name rthumb
     direction -0.707107 -6.34935e-011 0.707107   
     length 0.855843   
     axis -90 -45 -2.85299e-015   XYZ
    dof rx rz
    limits (-45.0 45.0)
           (-45.0 45.0)
  end
:hierarchy
  begin
    root lhipjoint rhipjoint lowerback
    lhipjoint lfemur
    lfemur ltibia
    ltibia lfoot
    lfoot ltoes
    rhipjoint rfemur
    rfemur rtibia
    rtibia rfoot
    rfoot rtoes
    lowerback upperback
    upperback thorax
    thorax lowerneck lclavicle rclavicle
    lowerneck upperneck
    upperneck head
    lclavicle lhumerus
    lhumerus lradius
    lradius lwrist
    lwrist lhand lthumb
    lhand lfingers
    rclavicle rhumerus
    rhumerus rradius
    rradius rwrist
    rwrist rhand rthumb
    rhand rfingers
  end

#!OML:ASF I:\salsa\salsa 7_09\Patient 1\Session 1\dancermale.ASF
:FULLY-SPECIFIED
:DEGREES
710
root -2.4859 16.9674 2.03713 190.332 136.916 185.586
lowerback -1.62887 -2.23012 2.02504
upperback -2.7949 -2.99388 -1.76124
thorax -2.15721 -1.55516 -2.93113
lowerneck -4.64298 7.21027 5.43469
upperneck 16.4455 10.9275 -8.85852
head 6.54128 5.06533 -2.88694
rclavicle -2.80923e-014 6.26172e-015
rhumerus -42.9006 -24.094 -69.1436
rradius 103.41
rwrist -16.9636
rhand -55.7169 -12.1728
rfingers 7.12502
rthumb -28.0656 -40.0934
lclavicle -2.80923e-014 6.26172e-015
lhumerus -16.3276 -31.0448 114.302
lradius 59.8814
lwrist 40.1165
lhand -14.2917 59.3538
lfingers 7.12502
lthumb 11.8479 88.9986
rfemur -19.3815 7.13719 12.1261
rtibia 50.5365
rfoot -18.5269 -10.8207
rtoes -8.41429
lfemur -29.1589 -1.9148 -24.5367
ltibia 23.2579
lfoot -4.02332 -0.0148117
ltoes -9.83938
711
root -2.59109 17.0094 1.99856 190.828 136.267 185.255
lowerback -1.95219 -2.18875 2.37269
upperback -2.68345 -2.94401 -1.65531
thorax -1.87036 -1.5311 -3.03355
lowerneck -4.63511 7.30571 5.61521
upperneck 16.0055 11.017 -8.99542
head 6.42507 5.11753 -2.9543
rclavicle -3.04606e-014 7.55382e-015
rhumerus -42.5183 -24.417 -68.2077
rradius 103.141
rwrist -16.7728
rhand -53.9686 -12.1634
rfingers 7.12502
rthumb -26.3933 -40.3463
lclavicle -3.04606e-014 7.55382e-015
lhumerus -18.8397 -31.5558 114.24
lradius 61.4434
lwrist 41.2171
lhand -14.3978 59.3357
lfingers 7.12502
lthumb 11.7455 88.9863
rfemur -18.6498 5.80625 12.7645
rtibia 47.2784
rfoot -19.8514 -12.513
rtoes -9.95806
lfemur -29.5152 -2.33509 -23.7769
ltibia 21.679
lfoot -3.04464 -0.196164
ltoes -11.1792
712
root -2.69784 17.055 1.95943 191.355 135.879 184.873
lowerback -2.35381 -2.04303 2.62549
upperback -2.59045 -2.75841 -1.53224
thorax -1.54259 -1.43546 -3.06739
lowerneck -4.4249 7.42086 6.22099
upperneck 15.4939 11.1592 -9.51754
head 6.30162 5.20162 -3.21483
rclavicle 2.50841e-014 1.98785e-016
rhumerus -42.0441 -24.6652 -67.2749
rradius 102.591
rwrist -16.147
rhand -52.1349 -12.4305
rfingers 7.12502
rthumb -24.6368 -40.8648
lclavicle 2.50841e-014 1.98785e-016
lhumerus -21.2846 -31.6595 114.211
lradius 62.8372
lwrist 42.1891
lhand -14.12 59.4121
lfingers 7.12502
lthumb 12.0134 89.0473
rfemur -18.1414 4.39799 13.3312
rtibia 44.0714
rfoot -20.8127 -13.4889
rtoes -10.0325
lfemur -29.9081 -2.03513 -23.0128
ltibia 20.063
lfoot -2.48498 -0.931053
ltoes -13.0687
713
root -2.80369 17.0975 1.9146 192.056 135.625 184.582
lowerback -2.75411 -1.8749 2.74059
upperback -2.61112 -2.54241 -1.40387
thorax -1.32312 -1.32438 -3.01353
lowerneck -4.40459 7.55278 6.65242
upperneck 15.3056 11.3418 -9.88179
head 6.30009 5.29386 -3.38404
rclavicle 1.04076e-013 2.14687e-014
rhumerus -41.4862 -24.5983 -66.4703
rradius 101.764
rwrist -15.7366
rhand -50.6497 -11.9533
rfingers 7.12502
rthumb -23.2125 -40.5744
lclavicle 1.04076e-013 2.14687e-014
lhumerus -23.7475 -31.5219 114.267
lradius 64.0681
lwrist 42.6519
lhand -13.9296 59.4139
lfingers 7.12502
lthumb 12.197 89.0383
rfemur -17.8289 2.98316 13.6682
rtibia 40.9451
rfoot -21.6775 -13.645
rtoes -8.48167
lfemur -30.5853 -1.25165 -22.4335
ltibia 18.9162
lfoot -2.45604 -2.22467
ltoes -14.7085
714
root -2.90925 17.1367 1.86085 192.769 135.493 184.324
lowerback -2.98053 -1.66801 2.79027
upperback -2.73678 -2.26966 -1.2937
thorax -1.30324 -1.18822 -2.93049
lowerneck -4.29323 7.65329 6.92426
upperneck 15.0554 11.4624 -10.0595
head 6.23884 5.36387 -3.47836
rclavicle -5.38769e-014 1.27222e-014
rhumerus -40.9493 -24.2969 -65.7003
rradius 100.89
rwrist -15.6813
rhand -49.4383 -11.7702
rfingers 7.12502
rthumb -22.0499 -40.5332
lclavicle -5.38769e-014 1.27222e-014
lhumerus -26.3578 -31.3323 114.462
lradius 65.3538
lwrist 42.6258
lhand -14.0826 59.3902
lfingers 7.12502
lthumb 12.0494 89.0233
rfemur -17.6026 1.79332 13.8669
rtibia 37.9302
rfoot -22.2017 -13.3133
rtoes -6.90381
lfemur -31.468 -0.22418 -22.0022
ltibia 18.5457
lfoot -3.03253 -3.82024
ltoes -15.934
